<?xml version="1.0" encoding="UTF-8"?>
<svg version="1.1" xmlns="http://www.w3.org/2000/svg" width="201" height="177">
<path d="M0 0 C4.94651011 0.73802282 8.25533228 2.76456849 12.4296875 5.40625 C14.91606758 7.00288091 14.91606758 7.00288091 17.3203125 8.15625 C20.5381616 9.81860747 22.51677325 11.00166695 24.125 14.32421875 C24.91825982 16.87561692 25.51412494 19.37376152 26 22 C26.226875 23.19625 26.45375 24.3925 26.6875 25.625 C26.790625 26.40875 26.89375 27.1925 27 28 C28.12664062 28.12503906 29.25328125 28.25007813 30.4140625 28.37890625 C50.07502038 30.90896792 50.07502038 30.90896792 55.68505859 36.75634766 C58.70412176 41.035343 60.79893558 45.74319058 62.88183594 50.53027344 C64.73246053 54.61781021 66.97074594 58.47772971 69.1875 62.375 C70.02040376 63.8745157 70.85246008 65.37450247 71.68359375 66.875 C73.65508656 70.40574236 75.68872894 73.89575566 77.75 77.375 C80.58339303 82.18176794 83.11270001 87.09165968 85.54296875 92.11328125 C86.02378906 93.06589844 86.50460938 94.01851563 87 95 C87.47179687 96.19367188 87.94359375 97.38734375 88.4296875 98.6171875 C90.97731484 103.01577358 94.95527498 103.73485751 99.63867188 105.00585938 C100.72728516 105.27205078 101.81589844 105.53824219 102.9375 105.8125 C105.09288774 106.37984211 107.24785196 106.94879618 109.40234375 107.51953125 C110.35616943 107.75776611 111.30999512 107.99600098 112.29272461 108.24145508 C114.95730644 108.98803779 117.45238928 109.92477926 120 111 C120 111.99 120 112.98 120 114 C116.66204601 115.88452422 113.30252961 117.72682604 109.9375 119.5625 C108.99455078 120.09552734 108.05160156 120.62855469 107.08007812 121.17773438 C101.62983855 124.12124356 98.22735455 125.837454 92 124 C86.57963307 122.48744577 86.57963307 122.48744577 81 122 C78.9918232 123.26757259 78.03805355 124.63179049 76.70214844 126.58752441 C67.81457739 139.18398644 67.81457739 139.18398644 60.09228516 140.8359375 C56.30960788 141.05129229 52.56262477 140.85908428 48.78723145 140.58229065 C46.25155828 140.4019149 43.7233432 140.30223484 41.18261719 140.22253418 C33.97585226 139.98336498 26.77861259 139.61191009 19.58154297 139.17089844 C-2.07523633 136.95559875 -2.07523633 136.95559875 -21.59375 144.23046875 C-25.77333915 148.13362116 -29.28511668 152.38144862 -32.43652344 157.15026855 C-34.23135445 159.27371284 -35.28736942 159.64623449 -38 160 C-38.20388352 155.62569036 -38.32783606 151.25260535 -38.4375 146.875 C-38.49615234 145.6375 -38.55480469 144.4 -38.61523438 143.125 C-38.78484842 134.11122486 -38.78484842 134.11122486 -36.51171875 130.89282227 C-34.74625785 129.38861064 -32.97450987 128.20821008 -31 127 C-30.01450388 126.09109603 -29.05318459 125.15485847 -28.125 124.1875 C-26 122 -26 122 -25 121 C-25.99 120.34 -26.98 119.68 -28 119 C-29.33955251 115.53329318 -30.01087866 111.87472259 -30.8125 108.25 C-31.05419922 107.26 -31.29589844 106.27 -31.54492188 105.25 C-33.57663034 96.28411249 -31.66034188 91.64901377 -26.875 83.9375 C-26.47539063 83.28265625 -26.07578125 82.6278125 -25.6640625 81.953125 C-24.44882974 79.9649119 -23.22544842 77.98192909 -22 76 C-21.32195313 74.89785156 -20.64390625 73.79570313 -19.9453125 72.66015625 C-18.64222137 70.54328732 -17.33751798 68.42741006 -16.03125 66.3125 C-13.44628303 62.09701541 -10.90706024 57.85503855 -8.37084961 53.61010742 C-5.17820706 48.27471454 -1.91526832 42.9851279 1.37109375 37.70703125 C5.18640371 31.36648017 5.2736636 27.34273467 3.55126953 20.11767578 C2.84867324 17.32523773 2.13698011 14.53697315 1.37255859 11.76074219 C0.29605993 7.73694607 -0.20066927 4.162269 0 0 Z M29 32 C23.77246135 37.46515404 18.39262934 43.72754891 17.80859375 51.5703125 C18.03110507 54.75812774 18.48907277 57.84427301 19 61 C19.39157282 63.67898881 19.77332402 66.35927919 20.15429688 69.03979492 C20.42201458 70.89924808 20.69778292 72.75756375 20.98242188 74.61450195 C21.66270478 79.12305176 22.17369232 83.42358487 22 88 C12.2609732 91.66113362 2.56934408 95.29357882 -7.43359375 98.17578125 C-12.68519615 99.86236893 -14.66760676 101.48169196 -17.625 106.25 C-18.21539062 107.18328125 -18.80578125 108.1165625 -19.4140625 109.078125 C-20.99982275 111.99967344 -22.05002707 114.82088266 -23 118 C-16.03161477 120.18616007 -6.68115966 122.43593678 0.109375 118.90234375 C1.88978493 117.37102787 3.42850874 115.74397201 5 114 C6.29734493 112.8165037 7.61054472 111.65019869 8.9375 110.5 C9.60394531 109.91476563 10.27039063 109.32953125 10.95703125 108.7265625 C13.58711674 106.50381338 16.32804102 104.4609066 19.1015625 102.421875 C21.82441736 100.38253515 24.40837598 98.20288042 27 96 C32.00200471 98.70903397 35.73535737 102.33617097 39.80273438 106.23632812 C42.44783982 109.08862714 42.44783982 109.08862714 46 110 C46.33 110.99 46.66 111.98 47 113 C48.56481485 114.33528524 48.56481485 114.33528524 50.4375 115.5 C53.13920842 117.25977667 54.1327142 118.1990713 56 121 C58.42099355 121.4164535 58.42099355 121.4164535 61.2265625 121.29296875 C62.7734375 121.2784668 62.7734375 121.2784668 64.3515625 121.26367188 C65.97191406 121.2259668 65.97191406 121.2259668 67.625 121.1875 C68.71296875 121.17396484 69.8009375 121.16042969 70.921875 121.14648438 C73.61507409 121.11104754 76.30729374 121.06164331 79 121 C77.78225255 118.59774387 76.5515082 116.20376359 75.3125 113.8125 C74.97283203 113.13896484 74.63316406 112.46542969 74.28320312 111.77148438 C68.62155156 100.92439493 59.6938652 97.35776626 48.48046875 93.82421875 C43.24821356 92.08562687 38.13379904 90.00749792 33 88 C33.77834419 79.50978574 35.50180354 71.30624726 37.27148438 62.97460938 C37.49255859 61.90662109 37.71363281 60.83863281 37.94140625 59.73828125 C38.14451416 58.77962158 38.34762207 57.82096191 38.55688477 56.83325195 C39.31652152 51.97618059 39.574627 48.22367353 37.03125 43.9140625 C36.62519531 43.21152344 36.21914062 42.50898437 35.80078125 41.78515625 C35.37152344 41.07230469 34.94226563 40.35945313 34.5 39.625 C34.07074219 38.88894531 33.64148438 38.15289062 33.19921875 37.39453125 C32.14436224 35.58955456 31.07373119 33.79381282 30 32 C29.67 32 29.34 32 29 32 Z " fill="#8A6BC9" transform="translate(72,1)"/>
<path d="M0 0 C4.94651011 0.73802282 8.25533228 2.76456849 12.4296875 5.40625 C14.91606758 7.00288091 14.91606758 7.00288091 17.3203125 8.15625 C20.49222657 9.7948772 22.50576408 10.97787052 24.08984375 14.25390625 C24.87802169 16.8223468 25.46482821 19.36807305 26 22 C26.41319928 23.50095885 26.82953258 25.00106095 27.25 26.5 C28 30 28 30 27 32 C27.99 32.495 27.99 32.495 29 33 C28.41992188 33.72703125 28.41992188 33.72703125 27.828125 34.46875 C21.87432882 42.13205202 18.21403104 47.28485151 19.4375 57.23828125 C19.7159375 59.10033203 19.7159375 59.10033203 20 61 C20.3857916 63.68114675 20.76889275 66.36267214 21.15209961 69.04418945 C21.42142429 70.90190491 21.69804171 72.75858071 21.98266602 74.61401367 C22.66243371 79.12276243 23.17369758 83.42344646 23 88 C13.1736753 92.56135566 3.11582631 96.04077836 -7.25 99.16796875 C-12.36296383 100.71493082 -13.72728624 101.66956827 -16.5625 106.25 C-17.16191406 107.20390625 -17.76132812 108.1578125 -18.37890625 109.140625 C-19.84021986 111.71817093 -20.98139741 114.22291433 -22 117 C-21.34 117.66 -20.68 118.32 -20 119 C-23.465 119.495 -23.465 119.495 -27 120 C-34.32828761 100.45789972 -34.32828761 100.45789972 -32.390625 92.49609375 C-31.09952735 90.16592779 -29.5956184 88.13444378 -28 86 C-26.47511633 83.54783191 -25.02540973 81.05199154 -23.5625 78.5625 C-22.77531074 77.25277854 -21.98627665 75.94416395 -21.1953125 74.63671875 C-19.43413132 71.72121941 -17.68363702 68.79954096 -15.9375 65.875 C-11.62152266 58.68170444 -7.20278445 51.55062966 -2.78125 44.421875 C-2.42015137 43.83833252 -2.05905273 43.25479004 -1.68701172 42.65356445 C-0.68062183 41.0273772 0.32760438 39.4023268 1.3359375 37.77734375 C5.16087893 31.39346264 5.28521196 27.39117747 3.55126953 20.11767578 C2.84867324 17.32523773 2.13698011 14.53697315 1.37255859 11.76074219 C0.29605993 7.73694607 -0.20066927 4.162269 0 0 Z " fill="#AF8AE6" transform="translate(72,1)"/>
<path d="M0 0 C4.08675179 2.24399825 7.24360625 4.92589163 10.625 8.125 C15.54778368 12.74035109 20.62362093 17.03413787 25.91796875 21.22265625 C28 23 28 23 29 25 C30.98288632 25.45201596 30.98288632 25.45201596 33.3671875 25.59765625 C34.25277344 25.67693359 35.13835937 25.75621094 36.05078125 25.83789062 C36.98277344 25.91201172 37.91476563 25.98613281 38.875 26.0625 C40.70598946 26.21699772 42.53673453 26.37442707 44.3671875 26.53515625 C45.59091064 26.63389038 45.59091064 26.63389038 46.83935547 26.73461914 C49 27 49 27 52 28 C49.16929674 34.82206205 43.21702953 41.12711232 37 45 C31.98466158 46.67095853 26.77285902 46.21003753 21.57577133 45.79375076 C19.04790386 45.59614658 16.52997943 45.49181109 13.99588013 45.40927124 C6.81358639 45.15833446 -0.35661458 44.73916911 -7.52832031 44.28076172 C-29.11843311 42.00325928 -29.11843311 42.00325928 -48.58496094 49.22167969 C-52.76681511 53.12691951 -56.28032448 57.37768584 -59.43453979 62.14828491 C-61.23064783 64.27282333 -62.28570355 64.64637671 -65 65 C-65.20388352 60.62569036 -65.32783606 56.25260535 -65.4375 51.875 C-65.49615234 50.6375 -65.55480469 49.4 -65.61523438 48.125 C-65.78486604 39.1102889 -65.78486604 39.1102889 -63.50732422 35.88842773 C-61.74298078 34.38468915 -59.97578455 33.20374451 -58 32 C-54.70249313 28.79281801 -54.70249313 28.79281801 -51.64941406 25.3605957 C-49.4275231 23.52776588 -48.20059289 23.73110532 -45.359375 23.91796875 C-44.45316406 23.95470703 -43.54695313 23.99144531 -42.61328125 24.02929688 C-40.71931747 24.1339429 -38.82599167 24.25093747 -36.93359375 24.38085938 C-32.01173157 24.55838057 -28.91249361 24.4902577 -25.07421875 21.20703125 C-24.03059428 20.15644929 -23.00337947 19.08908408 -22 18 C-20.93458984 17.05640625 -20.93458984 17.05640625 -19.84765625 16.09375 C-19.25855469 15.5678125 -18.66945312 15.041875 -18.0625 14.5 C-14.79258387 11.6285456 -11.40323793 8.9985267 -7.8984375 6.421875 C-5.17558264 4.38253515 -2.59162402 2.20288042 0 0 Z " fill="#784BCB" transform="translate(99,96)"/>
<path d="M0 0 C10.77881603 3.39247429 14.16572029 8.94442187 19.375 18.625 C20.05949219 19.88376953 20.05949219 19.88376953 20.7578125 21.16796875 C21.69485719 22.89202569 22.62979221 24.61723074 23.56274414 26.34350586 C25.02090568 29.03864017 26.48791157 31.7287939 27.95703125 34.41796875 C30.01830594 38.1943092 32.06992631 41.97565212 34.11328125 45.76171875 C41.41572005 59.29891066 41.41572005 59.29891066 48.875 72.75 C49.22844482 73.3795459 49.58188965 74.0090918 49.94604492 74.65771484 C51.6334427 77.64527781 53.35526675 80.6049819 55.140625 83.53515625 C55.79546875 84.61667969 56.4503125 85.69820313 57.125 86.8125 C57.70507812 87.74707031 58.28515625 88.68164062 58.8828125 89.64453125 C60 92 60 92 59 95 C55.63252753 94.46912787 52.32742101 93.73897325 49 93 C47.79472656 92.79761719 46.58945313 92.59523438 45.34765625 92.38671875 C39.04235267 90.93361833 34.73443132 89.60449431 31.02734375 84.0546875 C28.7722841 80.19264986 26.83539217 76.19488462 24.97998047 72.12792969 C23.77546711 69.51244925 22.41098485 67.00928608 21 64.5 C20.54882812 63.66855469 20.09765625 62.83710937 19.6328125 61.98046875 C18.28404062 59.51847606 16.92313473 57.06434765 15.5546875 54.61328125 C15.11382812 53.82308594 14.67296875 53.03289063 14.21875 52.21875 C13.34788769 50.65929888 12.47558147 49.10065287 11.6015625 47.54296875 C9.61939743 43.99263511 7.69573374 40.43301468 5.8984375 36.78515625 C3.8985717 32.73079172 1.56780202 28.93267353 -0.828125 25.1015625 C-2 23 -2 23 -2 21 C-2.99257812 20.75765625 -3.98515625 20.5153125 -5.0078125 20.265625 C-14.06713744 18.03667228 -23.0473188 15.6298501 -32 13 C-30.94809831 9.61726578 -29.78649076 8.86835702 -26.69921875 6.96484375 C-25.36795901 6.27735738 -24.030421 5.60191944 -22.6875 4.9375 C-21.35749741 4.26024359 -20.02805847 3.581879 -18.69921875 2.90234375 C-18.06201904 2.58322021 -17.42481934 2.26409668 -16.76831055 1.93530273 C-14.80289083 0.93294631 -14.80289083 0.93294631 -12.3125 -0.78125 C-8.13918911 -2.98069763 -4.32210329 -1.27598997 0 0 Z " fill="#8C6BCA" transform="translate(137,4)"/>
<path d="M0 0 C0.99 0.33 1.98 0.66 3 1 C3.79956055 2.74658203 3.79956055 2.74658203 4.38671875 5.0078125 C4.7105957 6.24144531 4.7105957 6.24144531 5.04101562 7.5 C5.36102539 8.799375 5.36102539 8.799375 5.6875 10.125 C5.91244141 10.96804688 6.13738281 11.81109375 6.36914062 12.6796875 C7.60866137 17.53227934 8.42218281 21.95329166 8 27 C6.25 29.4375 6.25 29.4375 4 32 C3.07498383 33.85003233 2.15310219 35.70180685 1.2578125 37.56640625 C-2.34415953 44.5354391 -6.70710901 51.14930189 -11.125 57.625 C-13.91194023 61.74086268 -16.27651268 66.03342885 -18.60546875 70.421875 C-20.51232054 73.94714721 -22.49199787 77.30523238 -24.859375 80.54296875 C-29.20873588 86.46446746 -29.20873588 86.46446746 -30.25 93.5 C-29.13069879 99.55797232 -27.34361283 105.5686362 -25.64160156 111.48828125 C-25.41698242 112.28492187 -25.19236328 113.0815625 -24.9609375 113.90234375 C-24.75259277 114.61898193 -24.54424805 115.33562012 -24.32958984 116.07397461 C-24 118 -24 118 -25 121 C-30.00340377 119.58466407 -33.84851863 117.40888921 -38.125 114.5625 C-38.73214844 114.16740234 -39.33929688 113.77230469 -39.96484375 113.36523438 C-41.65381466 112.25949198 -43.32747573 111.1304652 -45 110 C-45.76570313 109.55011719 -46.53140625 109.10023437 -47.3203125 108.63671875 C-49.8556437 106.16624486 -50.08732191 103.68119987 -50.75 100.25 C-50.99234375 99.05890625 -51.2346875 97.8678125 -51.484375 96.640625 C-52.9178555 86.51938387 -52.9178555 86.51938387 -49.6875 81.6875 C-49.14351562 80.84316406 -48.59953125 79.99882813 -48.0390625 79.12890625 C-47.36617187 78.09636719 -46.69328125 77.06382813 -46 76 C-44.17072741 73.05188659 -42.36741581 70.08807011 -40.5625 67.125 C-40.08361328 66.34278076 -39.60472656 65.56056152 -39.11132812 64.75463867 C-35.85304224 59.42769686 -32.67226094 54.06394585 -29.54296875 48.66015625 C-25.4736802 41.64449675 -21.22771365 34.75855874 -16.859375 27.92578125 C-12.03648213 20.33681746 -7.2791935 12.72018375 -3.0078125 4.8046875 C-2.08655332 3.15499084 -1.04810709 1.57216064 0 0 Z " fill="#AE8BE5" transform="translate(56,4)"/>
<path d="M0 0 C1.39123156 4.93662812 1.4013481 9.77429565 1.4375 14.875 C1.50259766 15.83664063 1.56769531 16.79828125 1.63476562 17.7890625 C1.59905894 25.50170646 -1.60720397 31.17088144 -6.87545776 36.57371521 C-16.86739021 44.8372072 -31.76752053 42.25623668 -43.93638992 41.55764771 C-47.71018714 41.35623016 -51.48652108 41.23633387 -55.26342773 41.109375 C-61.17820709 40.90193386 -67.0894945 40.65273335 -73.00097656 40.36669922 C-79.7051911 40.04416241 -86.40655387 39.82345185 -93.1171875 39.69140625 C-94.38593468 39.66547646 -94.38593468 39.66547646 -95.68031311 39.63902283 C-97.24671657 39.60735527 -98.81312752 39.57605543 -100.37954712 39.54519653 C-103.75511232 39.47530778 -107.12919072 39.38545842 -110.50390625 39.28125 C-111.53330322 39.25095703 -112.5627002 39.22066406 -113.62329102 39.18945312 C-116 39 -116 39 -118 38 C-115.68525167 32.57019142 -111.20117152 29.00145539 -107 25 C-106.45730469 24.45214844 -105.91460937 23.90429688 -105.35546875 23.33984375 C-100.08662854 18.36129777 -93.23506464 18.85655487 -86.40541077 19.03907776 C-85.61678146 19.06614304 -84.82815216 19.09320831 -84.015625 19.12109375 C-83.16959213 19.14497665 -82.32355927 19.16885956 -81.45188904 19.19346619 C-79.64839087 19.24448031 -77.84495844 19.29786632 -76.04159546 19.35345459 C-71.33159744 19.49525655 -66.62084865 19.60669513 -61.91015625 19.72265625 C-56.7326924 19.85217449 -51.5553463 19.98278511 -46.37841797 20.13232422 C-42.48181385 20.24276878 -38.58517574 20.3119385 -34.6875 20.375 C-33.55795898 20.41294678 -32.42841797 20.45089355 -31.26464844 20.48999023 C-25.21674705 20.63089956 -25.21674705 20.63089956 -20.078125 17.75390625 C-19.39234375 16.84511719 -18.7065625 15.93632812 -18 15 C-16.36438472 13.50954234 -14.71856743 12.03019957 -13.0625 10.5625 C-10.11174779 7.93276852 -7.24368687 5.28230555 -4.5 2.4375 C-2 0 -2 0 0 0 Z " fill="#784DCB" transform="translate(163,134)"/>
<path d="M0 0 C0.99 0 1.98 0 3 0 C3 0.66 3 1.32 3 2 C4.33998047 1.87818359 4.33998047 1.87818359 5.70703125 1.75390625 C9.78736614 2.05884231 10.82221965 3.09167826 13.6875 5.9375 C18.21663172 10.28766907 22.93379747 14.24468887 27.84765625 18.15234375 C30 20 30 20 31 22 C32.98288632 22.45201596 32.98288632 22.45201596 35.3671875 22.59765625 C36.25277344 22.67693359 37.13835937 22.75621094 38.05078125 22.83789062 C38.98277344 22.91201172 39.91476563 22.98613281 40.875 23.0625 C42.70598946 23.21699772 44.53673453 23.37442707 46.3671875 23.53515625 C47.18300293 23.600979 47.99881836 23.66680176 48.83935547 23.73461914 C51 24 51 24 54 25 C51.03542615 31.88326342 45.69505884 38.50289563 39 42 C31.12746387 43.74636756 22.95155673 42.74071258 15 42 C13.60719093 41.91351839 12.21398309 41.83298201 10.8203125 41.76171875 C3.3019636 41.3019636 3.3019636 41.3019636 2 40 C1.86457191 37.28629531 1.78943193 34.59443564 1.75390625 31.87890625 C1.72097204 30.20507281 1.68776032 28.53124482 1.65429688 26.85742188 C1.60681989 24.20633651 1.56239316 21.55527391 1.52319336 18.90405273 C1.48357866 16.35376766 1.43201132 13.80394098 1.37890625 11.25390625 C1.3704921 10.45803604 1.36207794 9.66216583 1.35340881 8.84217834 C1.42149778 4.45320517 1.42149778 4.45320517 -1 1 C-0.67 0.67 -0.34 0.34 0 0 Z " fill="#6835C3" transform="translate(97,99)"/>
<path d="M0 0 C0 3.10551666 -0.5393715 4.35261084 -2 7 C-2.66 7 -3.32 7 -4 7 C-4.33 8.32 -4.66 9.64 -5 11 C4.39880533 11.13219046 13.79763241 11.26268189 23.19648933 11.39115143 C27.56329608 11.45088996 31.930094 11.51115955 36.296875 11.57275391 C46.1089651 11.71084515 55.92108275 11.839325 65.73352051 11.95019531 C68.4255878 11.98078335 71.11746224 12.01575555 73.80944824 12.05371094 C76.97452539 12.09749504 80.13943035 12.12928052 83.3046875 12.15625 C84.18802765 12.1711145 85.0713678 12.185979 85.98147583 12.20129395 C87.98874843 12.21108514 89.99612579 12.11716363 92 12 C92.66 11.34 93.32 10.68 94 10 C94.99 10 95.98 10 97 10 C97 9.01 97 8.02 97 7 C98.32 6.67 99.64 6.34 101 6 C101.0825 5.38125 101.165 4.7625 101.25 4.125 C102 2 102 2 104.0625 0.75 C105.0215625 0.37875 105.0215625 0.37875 106 0 C106 4.72247841 103.54315978 7.50092248 100.46961975 10.82963562 C91.18204439 18.94928643 75.75749612 16.01016418 64.20093918 15.4203186 C60.4134964 15.23990431 56.62406364 15.1288415 52.83422852 15.01171875 C46.89814701 14.82076676 40.96473072 14.59367123 35.03125 14.33447266 C28.31359429 14.04233258 21.59761056 13.83467159 14.875 13.69921875 C14.02966202 13.68143875 13.18432404 13.66365875 12.31336975 13.64533997 C10.74839689 13.61243214 9.18342012 13.57971001 7.61843872 13.54721069 C4.24365095 13.4741568 0.87011169 13.38498087 -2.50390625 13.28125 C-3.53330322 13.25095703 -4.5627002 13.22066406 -5.62329102 13.18945312 C-8 13 -8 13 -10 12 C-8.52278578 8.54798361 -6.56205999 6.35038064 -3.875 3.75 C-3.15054688 3.04359375 -2.42609375 2.3371875 -1.6796875 1.609375 C-1.12539063 1.07828125 -0.57109375 0.5471875 0 0 Z " fill="#A188D1" transform="translate(55,160)"/>
<path d="M0 0 C8.10345611 0.49612997 15.40525933 3.320085 23 6 C23 6.33 23 6.66 23 7 C21.741875 7.185625 20.48375 7.37125 19.1875 7.5625 C18.12595703 7.71912109 18.12595703 7.71912109 17.04296875 7.87890625 C15 8 15 8 12 7 C12.2784375 8.1446875 12.2784375 8.1446875 12.5625 9.3125 C13 12 13 12 12 15 C11.01 15.33 10.02 15.66 9 16 C7.99466333 14.37829621 6.99588093 12.75252763 6 11.125 C5.443125 10.22007813 4.88625 9.31515625 4.3125 8.3828125 C3 6 3 6 3 4 C2.01 4 1.02 4 0 4 C0 2.68 0 1.36 0 0 Z " fill="#9276C6" transform="translate(99,29)"/>
<path d="M0 0 C3.43804294 0.30670504 6.87531287 0.6213595 10.3125 0.9375 C11.28896484 1.02451172 12.26542969 1.11152344 13.27148438 1.20117188 C14.20927734 1.28818359 15.14707031 1.37519531 16.11328125 1.46484375 C16.97735596 1.543396 17.84143066 1.62194824 18.73168945 1.70288086 C21 2 21 2 24 3 C22.4169423 7.2742558 19.49431596 9.26531794 16 12 C15.34 10.35 14.68 8.7 14 7 C13.01 7.495 13.01 7.495 12 8 C11.01 8 10.02 8 9 8 C8.67 7.34 8.34 6.68 8 6 C5.47266765 5.34444881 5.47266765 5.34444881 3 5 C3 4.34 3 3.68 3 3 C2.01 2.67 1.02 2.34 0 2 C0 1.34 0 0.68 0 0 Z " fill="#6E44BD" transform="translate(127,121)"/>
<path d="M0 0 C0.99384397 3.25258026 1.04826731 6.03465371 0.87890625 9.421875 C0.83056641 10.44667969 0.78222656 11.47148437 0.73242188 12.52734375 C0.67634766 13.59082031 0.62027344 14.65429688 0.5625 15.75 C0.51029297 16.82894531 0.45808594 17.90789062 0.40429688 19.01953125 C0.27480531 21.67999422 0.13984639 24.34006452 0 27 C-0.66 27 -1.32 27 -2 27 C-2 20.4 -2 13.8 -2 7 C-3.32 7 -4.64 7 -6 7 C-6 7.66 -6 8.32 -6 9 C-7.32 8.67 -8.64 8.34 -10 8 C-8.71451591 6.66070495 -7.42141845 5.32871357 -6.125 4 C-5.04605469 2.88625 -5.04605469 2.88625 -3.9453125 1.75 C-2 0 -2 0 0 0 Z " fill="#795BB5" transform="translate(163,134)"/>
<path d="M0 0 C0.99 0.33 1.98 0.66 3 1 C1.59902574 2.67433509 0.1896903 4.34228514 -1.2578125 5.9765625 C-3.0126246 7.94946988 -3.0126246 7.94946988 -4.4296875 10.0234375 C-7.21648003 13.56107569 -8.97792888 14.8633474 -13.53515625 15.47265625 C-19.7910524 15.51580036 -25.8319042 14.95382925 -32 14 C-32 13.67 -32 13.34 -32 13 C-31.40461426 12.98018066 -30.80922852 12.96036133 -30.19580078 12.93994141 C-27.50507847 12.84483874 -24.81514852 12.73510158 -22.125 12.625 C-21.18785156 12.5940625 -20.25070313 12.563125 -19.28515625 12.53125 C-17.94130859 12.47324219 -17.94130859 12.47324219 -16.5703125 12.4140625 C-15.74289551 12.3826416 -14.91547852 12.3512207 -14.06298828 12.31884766 C-11.78013915 12.17400863 -11.78013915 12.17400863 -10 10 C-9.01 10 -8.02 10 -7 10 C-7 9.01 -7 8.02 -7 7 C-5.68 6.67 -4.36 6.34 -3 6 C-2.87625 5.38125 -2.7525 4.7625 -2.625 4.125 C-2 2 -2 2 0 0 Z " fill="#856AC9" transform="translate(159,160)"/>
<path d="M0 0 C0.99 0.33 1.98 0.66 3 1 C3 2.32 3 3.64 3 5 C2.01 5.33 1.02 5.66 0 6 C-1.13355714 7.993927 -1.13355714 7.993927 -2 10.375 C-3.27666155 13.6411258 -4.4707668 15.59347892 -7 18 C-8.19027984 20.59915538 -8.19027984 20.59915538 -9 23 C-10.32 23 -11.64 23 -13 23 C-11.5399724 18.86325512 -9.44305589 15.62968304 -7 12 C-5.68579783 9.69915956 -4.4115959 7.37998098 -3.1484375 5.05078125 C-2.17909294 3.31980882 -1.10047464 1.65071197 0 0 Z " fill="#B198DB" transform="translate(56,4)"/>
<path d="M0 0 C0.33 0 0.66 0 1 0 C1.33 6.93 1.66 13.86 2 21 C3.32 21.33 4.64 21.66 6 22 C6.33 20.35 6.66 18.7 7 17 C8.32 17 9.64 17 11 17 C11.33 15.68 11.66 14.36 12 13 C13.32 13.33 14.64 13.66 16 14 C14.09236669 15.98861775 12.17484089 17.96565718 10.25 19.9375 C9.44175781 20.78344727 9.44175781 20.78344727 8.6171875 21.64648438 C8.08867188 22.18466797 7.56015625 22.72285156 7.015625 23.27734375 C6.29294434 24.02359009 6.29294434 24.02359009 5.55566406 24.78491211 C4 26 4 26 0 27 C0 18.09 0 9.18 0 0 Z " fill="#A28AD5" transform="translate(34,134)"/>
<path d="M0 0 C0.66 0 1.32 0 2 0 C2.3396019 1.87387477 2.67138691 3.74916697 3 5.625 C3.185625 6.66914062 3.37125 7.71328125 3.5625 8.7890625 C3.98715797 11.90574865 4.07545206 14.85930812 4 18 C2.5682384 18.69937202 1.12932968 19.38412718 -0.3125 20.0625 C-1.11300781 20.44535156 -1.91351563 20.82820313 -2.73828125 21.22265625 C-5 22 -5 22 -8 21 C-7.34 21 -6.68 21 -6 21 C-6 20.34 -6 19.68 -6 19 C-2.535 18.505 -2.535 18.505 1 18 C0.34 16.68 -0.32 15.36 -1 14 C-0.34 14 0.32 14 1 14 C0.649375 13.175 0.29875 12.35 -0.0625 11.5 C-1.22335775 7.16613108 -0.75705178 4.39090031 0 0 Z " fill="#AD8EDF" transform="translate(91,71)"/>
<path d="M0 0 C0.66 0.33 1.32 0.66 2 1 C-0.875 5.875 -0.875 5.875 -2 7 C-3.67252349 7.08720828 -5.34866799 7.10699405 -7.0234375 7.09765625 C-8.044375 7.09443359 -9.0653125 7.09121094 -10.1171875 7.08789062 C-11.19226563 7.07951172 -12.26734375 7.07113281 -13.375 7.0625 C-14.44234375 7.05798828 -15.5096875 7.05347656 -16.609375 7.04882812 C-18.5942494 7.04007868 -20.57911651 7.02928716 -22.56396484 7.01586914 C-24.37594584 7.0040653 -26.18798056 7 -28 7 C-26.31927298 4.91827177 -25.4992021 4.06273883 -22.79516602 3.72290039 C-21.53724243 3.78465454 -21.53724243 3.78465454 -20.25390625 3.84765625 C-18.87428711 3.88922852 -18.87428711 3.88922852 -17.46679688 3.93164062 C-15.53431735 4.01871267 -13.60201632 4.10984322 -11.66992188 4.20507812 C-6.1109415 4.50418446 -6.1109415 4.50418446 -1.33984375 1.99609375 C-0.89769531 1.33738281 -0.45554687 0.67867188 0 0 Z " fill="#775ABA" transform="translate(74,116)"/>
<path d="M0 0 C0 3.10551666 -0.5393715 4.35261084 -2 7 C-2.66 7 -3.32 7 -4 7 C-4.33 8.32 -4.66 9.64 -5 11 C8.365 11.495 8.365 11.495 22 12 C22 12.33 22 12.66 22 13 C17.7641643 13.02469321 13.52836658 13.04285671 9.29248047 13.05493164 C7.8510668 13.05996474 6.40965824 13.06679173 4.96826172 13.07543945 C2.89809915 13.08754983 0.82800399 13.09323847 -1.2421875 13.09765625 C-2.4885498 13.10289307 -3.73491211 13.10812988 -5.01904297 13.11352539 C-8 13 -8 13 -10 12 C-8.52278578 8.54798361 -6.56205999 6.35038064 -3.875 3.75 C-3.15054688 3.04359375 -2.42609375 2.3371875 -1.6796875 1.609375 C-1.12539063 1.07828125 -0.57109375 0.5471875 0 0 Z " fill="#A98FD5" transform="translate(55,160)"/>
<path d="M0 0 C-2.67488205 1.7832547 -5.21229554 2.92659734 -8.171875 4.1328125 C-10.30047855 5.07178422 -10.30047855 5.07178422 -13.0625 7.25 C-16 9 -16 9 -19.375 8.75 C-20.674375 8.37875 -20.674375 8.37875 -22 8 C-6.61654135 -2.2556391 -6.61654135 -2.2556391 0 0 Z " fill="#9179C2" transform="translate(134,3)"/>
<path d="M0 0 C0.66 0 1.32 0 2 0 C2.66 3.96 3.32 7.92 4 12 C4.99 12 5.98 12 7 12 C7.33 12.66 7.66 13.32 8 14 C8.99 14.66 9.98 15.32 11 16 C8.69 16.33 6.38 16.66 4 17 C1.90429574 11.30601106 0.54981916 6.04801071 0 0 Z " fill="#B98DDF" transform="translate(41,104)"/>
<path d="M0 0 C5.75 -0.125 5.75 -0.125 8 1 C8 1.99 8 2.98 8 4 C6.73581754 4.69965443 5.46334598 5.38434763 4.1875 6.0625 C3.47980469 6.44535156 2.77210938 6.82820313 2.04296875 7.22265625 C0 8 0 8 -3 7 C-2.67 5.35 -2.34 3.7 -2 2 C-1.01 2.33 -0.02 2.66 1 3 C0.67 2.01 0.34 1.02 0 0 Z " fill="#8871BC" transform="translate(184,111)"/>
<path d="M0 0 C1.23925303 3.48738512 0.7983396 5.24703368 -0.75 8.5625 C-1.09546875 9.32691406 -1.4409375 10.09132813 -1.796875 10.87890625 C-2.99435727 12.99005194 -4.25667381 14.33612835 -6 16 C-6.7734375 17.3303125 -6.7734375 17.3303125 -7.5625 18.6875 C-8.036875 19.450625 -8.51125 20.21375 -9 21 C-9.66 21 -10.32 21 -11 21 C-9.63333635 16.27749733 -7.57782311 12.35926853 -4.9375 8.25 C-2.32961914 4.20513545 -2.32961914 4.20513545 0 0 Z " fill="#B59ED8" transform="translate(17,68)"/>
<path d="M0 0 C2.99549387 0.32094577 3.95752249 0.9549481 6.0625 3.1875 C8.04114982 6.05973361 9.66771572 8.77446965 11 12 C10.67 12.99 10.34 13.98 10 15 C9.34 14.67 8.68 14.34 8 14 C7.375 11.9375 7.375 11.9375 7 10 C5.68 9.67 4.36 9.34 3 9 C3 6.69 3 4.38 3 2 C2.01 1.67 1.02 1.34 0 1 C0 0.67 0 0.34 0 0 Z " fill="#927ABE" transform="translate(143,7)"/>
<path d="M0 0 C2.64 0 5.28 0 8 0 C8.33 0.99 8.66 1.98 9 3 C10.99665314 4.68538601 10.99665314 4.68538601 13 6 C13.33 4.35 13.66 2.7 14 1 C14.33 1 14.66 1 15 1 C15.33 3.31 15.66 5.62 16 8 C15.01 8.33 14.02 8.66 13 9 C10.65195878 7.78942831 8.51878826 6.5544262 6.3125 5.125 C5.70599609 4.74730469 5.09949219 4.36960937 4.47460938 3.98046875 C2.95979484 3.02284696 1.47672249 2.01537837 0 1 C0 0.67 0 0.34 0 0 Z " fill="#B499DE" transform="translate(16,116)"/>
<path d="M0 0 C2.40569331 3.05783908 4.36189615 6.22457996 6.25 9.625 C6.79140625 10.58664063 7.3328125 11.54828125 7.890625 12.5390625 C8.25671875 13.35117187 8.6228125 14.16328125 9 15 C8.67 15.66 8.34 16.32 8 17 C7.01 17 6.02 17 5 17 C4 14 3 11 2 8 C1.34 7.67 0.68 7.34 0 7 C0 4.69 0 2.38 0 0 Z " fill="#9882C3" transform="translate(164,38)"/>
<path d="M0 0 C1.32 0.33 2.64 0.66 4 1 C4 1.66 4 2.32 4 3 C4.66 3.33 5.32 3.66 6 4 C5.34 4 4.68 4 4 4 C4.2784375 5.1446875 4.2784375 5.1446875 4.5625 6.3125 C5 9 5 9 4 12 C3.34 12 2.68 12 2 12 C0.40861915 7.82262526 -0.21278058 4.46839215 0 0 Z " fill="#AE91DB" transform="translate(72,1)"/>
<path d="M0 0 C0.33 1.32 0.66 2.64 1 4 C-1.35424675 4.02726927 -3.70816962 4.04696719 -6.0625 4.0625 C-8.02896484 4.07990234 -8.02896484 4.07990234 -10.03515625 4.09765625 C-13.8163519 4.00452335 -17.27920707 3.61448726 -21 3 C-21 2.67 -21 2.34 -21 2 C-20.39937744 1.97494385 -19.79875488 1.9498877 -19.17993164 1.92407227 C-16.47388563 1.8084472 -13.76821717 1.68557064 -11.0625 1.5625 C-10.11697266 1.52318359 -9.17144531 1.48386719 -8.19726562 1.44335938 C-7.29814453 1.40146484 -6.39902344 1.35957031 -5.47265625 1.31640625 C-4.64000244 1.27974854 -3.80734863 1.24309082 -2.94946289 1.20532227 C-0.99661142 1.20632897 -0.99661142 1.20632897 0 0 Z " fill="#A284C8" transform="translate(148,171)"/>
<path d="M0 0 C0.33 1.32 0.66 2.64 1 4 C0.01 4.33 -0.98 4.66 -2 5 C-2 5.66 -2 6.32 -2 7 C-3.32 7 -4.64 7 -6 7 C-6 7.66 -6 8.32 -6 9 C-7.32 8.67 -8.64 8.34 -10 8 C-8.71451591 6.66070495 -7.42141845 5.32871357 -6.125 4 C-5.04605469 2.88625 -5.04605469 2.88625 -3.9453125 1.75 C-2 0 -2 0 0 0 Z " fill="#865EC2" transform="translate(163,134)"/>
<path d="M0 0 C5.6143991 1.56448671 10.86810338 3.16395187 16 6 C12.60052355 7.13315882 11.92652852 6.86787136 8.6875 5.6875 C7.89859375 5.40648438 7.1096875 5.12546875 6.296875 4.8359375 C5.53890625 4.56007813 4.7809375 4.28421875 4 4 C2.824375 3.608125 1.64875 3.21625 0.4375 2.8125 C-0.366875 2.544375 -1.17125 2.27625 -2 2 C-1.34 1.34 -0.68 0.68 0 0 Z " fill="#957CC1" transform="translate(114,91)"/>
<path d="M0 0 C0.66 0 1.32 0 2 0 C1.37246964 4.6437247 1.37246964 4.6437247 -0.4375 6.375 C-2.81623468 8.84888406 -3.19799203 11.73027521 -4 15 C-5.32 15 -6.64 15 -8 15 C-6.62992438 11.34426939 -4.98982135 8.04532353 -3 4.6875 C-2.484375 3.80449219 -1.96875 2.92148437 -1.4375 2.01171875 C-0.7259375 1.01591797 -0.7259375 1.01591797 0 0 Z " fill="#B6A1DD" transform="translate(68,47)"/>
<path d="M0 0 C0.433125 0.598125 0.86625 1.19625 1.3125 1.8125 C2.88503213 4.00449852 2.88503213 4.00449852 4.75 5.5 C5.1625 5.995 5.575 6.49 6 7 C5.72963853 9.97397616 5.14553974 10.85446026 3 13 C-0.36055646 8.51925805 -0.27429625 5.39449293 0 0 Z " fill="#9077CA" transform="translate(144,103)"/>
<path d="M0 0 C0.66 0.33 1.32 0.66 2 1 C-0.625 5.875 -0.625 5.875 -4 7 C-6.06587115 6.91426773 -8.12946525 6.76166465 -10.1875 6.5625 C-11.81751953 6.40974609 -11.81751953 6.40974609 -13.48046875 6.25390625 C-14.31191406 6.17011719 -15.14335938 6.08632812 -16 6 C-16 5.67 -16 5.34 -16 5 C-14.77023438 4.96132812 -14.77023438 4.96132812 -13.515625 4.921875 C-11.89914063 4.83679688 -11.89914063 4.83679688 -10.25 4.75 C-9.18265625 4.70359375 -8.1153125 4.6571875 -7.015625 4.609375 C-3.47594492 3.89410286 -2.26118038 2.74415095 0 0 Z " fill="#8A6DBE" transform="translate(74,116)"/>
<path d="M0 0 C3.85076039 0.66969746 7.01571784 0.08870406 10.875 -0.5 C7.43727273 2.93772727 3.76539016 3.47127774 -1 3.625 C-2.03125 3.58375 -3.0625 3.5425 -4.125 3.5 C-4.125 2.51 -4.125 1.52 -4.125 0.5 C-2.125 -0.5 -2.125 -0.5 0 0 Z " fill="#BAA1DF" transform="translate(72.125,93.5)"/>
<path d="M0 0 C1.65 0.33 3.3 0.66 5 1 C4.41734375 1.26554688 3.8346875 1.53109375 3.234375 1.8046875 C0.93825772 3.03302996 -0.80356018 4.40314939 -2.75 6.125 C-3.36359375 6.66382813 -3.9771875 7.20265625 -4.609375 7.7578125 C-5.06828125 8.16773438 -5.5271875 8.57765625 -6 9 C-6.66 8.01 -7.32 7.02 -8 6 C-7.360625 5.71125 -6.72125 5.4225 -6.0625 5.125 C-3.84793921 4.17176549 -3.84793921 4.17176549 -3 2 C-2.01 2 -1.02 2 0 2 C0 1.34 0 0.68 0 0 Z " fill="#9073C9" transform="translate(56,138)"/>
<path d="M0 0 C0.66 0 1.32 0 2 0 C3.60355101 3.50776784 4.22036864 6.14354879 4 10 C2.35 10.66 0.7 11.32 -1 12 C-0.73958333 10.046875 -0.47916667 8.09375 -0.21875 6.140625 C0.06777357 3.69541605 0.06777357 3.69541605 0 0 Z " fill="#BA9CDE" transform="translate(77,23)"/>
<path d="M0 0 C0 0.66 0 1.32 0 2 C-0.66 2 -1.32 2 -2 2 C-1.34 2.66 -0.68 3.32 0 4 C0 4.99 0 5.98 0 7 C-2.31 6.67 -4.62 6.34 -7 6 C-5.52522876 2.59668175 -4.14385429 0 0 0 Z " fill="#A08DCB" transform="translate(112,11)"/>
<path d="M0 0 C0.66 0.33 1.32 0.66 2 1 C-1.625 6.875 -1.625 6.875 -5 8 C-5.33 8.66 -5.66 9.32 -6 10 C-7.32 9.67 -8.64 9.34 -10 9 C-6.7 6.03 -3.4 3.06 0 0 Z " fill="#967BC9" transform="translate(86,106)"/>
<path d="M0 0 C2.63978826 3.18595135 5.10498388 6.30970546 7 10 C6.67 10.66 6.34 11.32 6 12 C2.39345961 9.59563974 2.14547068 8.05320393 1 4 C0.34 4 -0.32 4 -1 4 C-0.67 2.68 -0.34 1.36 0 0 Z " fill="#A48BCA" transform="translate(146,74)"/>
<path d="M0 0 C0.99 0.33 1.98 0.66 3 1 C3 2.32 3 3.64 3 5 C2.01 5.33 1.02 5.66 0 6 C-0.33 6.66 -0.66 7.32 -1 8 C-1.99 8 -2.98 8 -4 8 C-2.87548273 5.0280615 -1.77706209 2.66559313 0 0 Z " fill="#BBAAD9" transform="translate(56,4)"/>
<path d="M0 0 C-2.85478326 1.90318884 -4.41941308 2.4619099 -7.6875 3.125 C-8.49574219 3.29257813 -9.30398437 3.46015625 -10.13671875 3.6328125 C-10.75160156 3.75398437 -11.36648437 3.87515625 -12 4 C-11 1 -11 1 -9.375 -0.25 C-6.04805845 -1.30061312 -3.37991551 -0.64998375 0 0 Z " fill="#9D8CC6" transform="translate(134,3)"/>
<path d="M0 0 C0.66 0 1.32 0 2 0 C2.33 3.63 2.66 7.26 3 11 C1.68 10.67 0.36 10.34 -1 10 C-0.67 6.7 -0.34 3.4 0 0 Z " fill="#A78AD7" transform="translate(91,71)"/>
<path d="M0 0 C4.875 2.75 4.875 2.75 6 5 C4.35 5 2.7 5 1 5 C1 4.34 1 3.68 1 3 C-0.98 3.66 -2.96 4.32 -5 5 C-3.35 3.35 -1.7 1.7 0 0 Z " fill="#9177C2" transform="translate(99,96)"/>
<path d="M0 0 C1.65 0 3.3 0 5 0 C4.04578192 1.14926266 3.08647955 2.29430541 2.125 3.4375 C1.59132812 4.07558594 1.05765625 4.71367187 0.5078125 5.37109375 C-1 7 -1 7 -3 8 C-3 7.01 -3 6.02 -3 5 C-2.34 5 -1.68 5 -1 5 C-0.67 3.35 -0.34 1.7 0 0 Z " fill="#8A6BC5" transform="translate(138,133)"/>
<path d="M0 0 C4.42857143 5.14285714 4.42857143 5.14285714 5 9 C1.28631113 7.76210371 0.22645819 6.14775123 -2 3 C-2 2.34 -2 1.68 -2 1 C-1.34 0.67 -0.68 0.34 0 0 Z " fill="#9B85CA" transform="translate(183,73)"/>
<path d="M0 0 C1.98 0.66 3.96 1.32 6 2 C6 2.66 6 3.32 6 4 C6.66 4.33 7.32 4.66 8 5 C5.69 5 3.38 5 1 5 C0.67 3.35 0.34 1.7 0 0 Z " fill="#846CB8" transform="translate(149,116)"/>
<path d="M0 0 C2 2 2 2 2.3125 5 C2.209375 5.99 2.10625 6.98 2 8 C1.01 8.66 0.02 9.32 -1 10 C-2.23076923 4.58461538 -2.23076923 4.58461538 -1.0625 1.625 C-0.5365625 0.820625 -0.5365625 0.820625 0 0 Z " fill="#B299E4" transform="translate(41,92)"/>
<path d="M0 0 C2.64 0.66 5.28 1.32 8 2 C5.37801226 4.15377564 3.35595828 5.40072174 0 6 C0 4 0 2 0 0 Z " fill="#927ABF" transform="translate(182,113)"/>
<path d="M0 0 C1.31611677 0.95336021 2.62778961 1.91285774 3.9375 2.875 C4.66839844 3.40867187 5.39929688 3.94234375 6.15234375 4.4921875 C8 6 8 6 9 8 C7.35 7.67 5.7 7.34 4 7 C4 6.34 4 5.68 4 5 C3.01 5 2.02 5 1 5 C0.67 3.35 0.34 1.7 0 0 Z " fill="#8263BE" transform="translate(105,101)"/>
<path d="M0 0 C0.66 0 1.32 0 2 0 C2.39036513 1.60049704 2.76178619 3.20562371 3.125 4.8125 C3.33382812 5.70582031 3.54265625 6.59914063 3.7578125 7.51953125 C4 10 4 10 2 13 C1.66127487 11.58461283 1.32925376 10.16762037 1 8.75 C0.814375 7.96109375 0.62875 7.1721875 0.4375 6.359375 C0 4 0 4 0 0 Z " fill="#BCA2E0" transform="translate(41,104)"/>
<path d="M0 0 C1 2 1 2 0.58203125 3.875 C-1.51579094 9.66797093 -1.51579094 9.66797093 -4.1875 11.5 C-4.785625 11.665 -5.38375 11.83 -6 12 C-4.43358249 7.69235185 -2.31663844 3.93828536 0 0 Z " fill="#BCA9E1" transform="translate(36,37)"/>
<path d="M0 0 C0.99 0.33 1.98 0.66 3 1 C3 1.99 3 2.98 3 4 C3.99 3.67 4.98 3.34 6 3 C5.67 4.98 5.34 6.96 5 9 C0.57142857 3.85714286 0.57142857 3.85714286 0 0 Z " fill="#9D8AC6" transform="translate(165,79)"/>
<path d="M0 0 C0.99 0.66 1.98 1.32 3 2 C1.68 4.31 0.36 6.62 -1 9 C-1.33 9 -1.66 9 -2 9 C-2 6.69 -2 4.38 -2 2 C-1.34 2 -0.68 2 0 2 C0 1.34 0 0.68 0 0 Z " fill="#B7A0DD" transform="translate(37,68)"/>
<path d="M0 0 C0.66 0 1.32 0 2 0 C2.49230769 6.4 2.49230769 6.4 0 9.4375 C-0.99 10.2109375 -0.99 10.2109375 -2 11 C-1.34 7.37 -0.68 3.74 0 0 Z " fill="#B9A5DD" transform="translate(62,24)"/>
<path d="M0 0 C-2.46735884 2.46735884 -4.72171521 2.9072384 -8 4 C-8.66 4.66 -9.32 5.32 -10 6 C-10 4.68 -10 3.36 -10 2 C-6.5980513 -0.09350689 -3.94727588 -0.17942163 0 0 Z " fill="#B49CDE" transform="translate(67,98)"/>
<path d="M0 0 C-1.4375 1.625 -1.4375 1.625 -4 3 C-7.09705247 2.66417503 -10.01810374 1.88564868 -13 1 C-13 0.67 -13 0.34 -13 0 C-11.58456585 -0.19658808 -10.16755969 -0.38187546 -8.75 -0.5625 C-7.96109375 -0.66691406 -7.1721875 -0.77132812 -6.359375 -0.87890625 C-3.99467126 -1.00027349 -2.2488963 -0.69633257 0 0 Z " fill="#C4A8E2" transform="translate(155,122)"/>
<path d="M0 0 C2.15377564 2.62198774 3.40072174 4.64404172 4 8 C3.01 8 2.02 8 1 8 C0.87625 7.360625 0.7525 6.72125 0.625 6.0625 C0.315625 5.0415625 0.315625 5.0415625 0 4 C-0.66 3.67 -1.32 3.34 -2 3 C-1 1 -1 1 0 0 Z " fill="#9B86C3" transform="translate(150,13)"/>
<path d="M0 0 C0.598125 0.350625 1.19625 0.70125 1.8125 1.0625 C1.8125 1.7225 1.8125 2.3825 1.8125 3.0625 C2.4725 3.3925 3.1325 3.7225 3.8125 4.0625 C-0.6425 3.0725 -0.6425 3.0725 -5.1875 2.0625 C-5.1875 1.4025 -5.1875 0.7425 -5.1875 0.0625 C-2.1875 -0.9375 -2.1875 -0.9375 0 0 Z " fill="#A490D0" transform="translate(181.1875,91.9375)"/>
<path d="M0 0 C0.6875 1.6875 0.6875 1.6875 1 4 C-0.3125 6.75 -0.3125 6.75 -2 9 C-2.66 9 -3.32 9 -4 9 C-2.94124926 5.59687262 -1.99097846 2.98646769 0 0 Z " fill="#BBAADD" transform="translate(10,80)"/>
<path d="M0 0 C2.96175123 0.61277612 4.38058783 1.25372522 7 3 C7 3.66 7 4.32 7 5 C4.0625 4.1875 4.0625 4.1875 1 3 C0.67 2.01 0.34 1.02 0 0 Z " fill="#BDA3DC" transform="translate(88,10)"/>
<path d="M0 0 C0.33 0 0.66 0 1 0 C1.33 2.31 1.66 4.62 2 7 C1.01 7.33 0.02 7.66 -1 8 C-3.1875 6.5625 -3.1875 6.5625 -5 5 C-3.68 5 -2.36 5 -1 5 C-0.67 3.35 -0.34 1.7 0 0 Z " fill="#BDA7E0" transform="translate(30,117)"/>
<path d="M0 0 C0 0.66 0 1.32 0 2 C-2.97 2.66 -5.94 3.32 -9 4 C-8.34 3.67 -7.68 3.34 -7 3 C-7 2.34 -7 1.68 -7 1 C-4 0 -4 0 0 0 Z " fill="#B298D7" transform="translate(92,89)"/>
<path d="M0 0 C1.9375 0.75 1.9375 0.75 4 2 C4.75 4.125 4.75 4.125 5 6 C3.68 6 2.36 6 1 6 C0.67 4.02 0.34 2.04 0 0 Z " fill="#9E83C9" transform="translate(138,62)"/>
<path d="M0 0 C0.99 0.33 1.98 0.66 3 1 C2.67 1.66 2.34 2.32 2 3 C2.66 3.33 3.32 3.66 4 4 C3.01 4.99 2.02 5.98 1 7 C0.34 6.67 -0.32 6.34 -1 6 C-0.67 4.02 -0.34 2.04 0 0 Z " fill="#AA80D4" transform="translate(97,30)"/>
<path d="M0 0 C1.32 0.66 2.64 1.32 4 2 C1.42786866 3.61949011 0.32330841 4.04408751 -2.75 3.625 C-3.4925 3.41875 -4.235 3.2125 -5 3 C-4.360625 2.690625 -3.72125 2.38125 -3.0625 2.0625 C-1.06389179 1.1654837 -1.06389179 1.1654837 0 0 Z " fill="#9786C0" transform="translate(171,122)"/>
<path d="M0 0 C2.97 1.98 2.97 1.98 6 4 C3 5 3 5 0 5 C0 3.35 0 1.7 0 0 Z " fill="#957CCC" transform="translate(120,114)"/>
<path d="M0 0 C-0.8125 2.4375 -0.8125 2.4375 -2 5 C-2.99 5.33 -3.98 5.66 -5 6 C-4.625 3.5625 -4.625 3.5625 -4 1 C-2 0 -2 0 0 0 Z " fill="#B69CDF" transform="translate(57,104)"/>
<path d="M0 0 C0.33 1.32 0.66 2.64 1 4 C-0.98 4.99 -0.98 4.99 -3 6 C-3.66 5.34 -4.32 4.68 -5 4 C-3.35 2.68 -1.7 1.36 0 0 Z " fill="#7E5DBC" transform="translate(93,101)"/>
<path d="M0 0 C2.25245881 2.68841859 3.88213958 4.64641875 5 8 C2.525 7.01 2.525 7.01 0 6 C0 4.02 0 2.04 0 0 Z " fill="#9582C6" transform="translate(189,84)"/>
<path d="M0 0 C0.33 0.66 0.66 1.32 1 2 C1.99 2.33 2.98 2.66 4 3 C4.33 3.99 4.66 4.98 5 6 C3.68 6 2.36 6 1 6 C0.67 4.02 0.34 2.04 0 0 Z " fill="#8A72BC" transform="translate(170,86)"/>
<path d="M0 0 C0.99 0 1.98 0 3 0 C3 0.66 3 1.32 3 2 C3.66 2.33 4.32 2.66 5 3 C4.34 3.66 3.68 4.32 3 5 C2.01 4.67 1.02 4.34 0 4 C0 2.68 0 1.36 0 0 Z " fill="#8A67D5" transform="translate(171,82)"/>
<path d="M0 0 C0.99 0.33 1.98 0.66 3 1 C1.69593116 3.01920337 0.36176581 5.01924973 -1 7 C-1.33 7 -1.66 7 -2 7 C-2.125 4.625 -2.125 4.625 -2 2 C-1.34 1.34 -0.68 0.68 0 0 Z " fill="#BEA7DC" transform="translate(47,53)"/>
<path d="M0 0 C0.6875 1.75 0.6875 1.75 1 4 C-0.4375 6.25 -0.4375 6.25 -2 8 C-2.66 7.67 -3.32 7.34 -4 7 C-2.68 4.69 -1.36 2.38 0 0 Z " fill="#BFA8DC" transform="translate(27,52)"/>
<path d="M0 0 C2.15377564 2.62198774 3.40072174 4.64404172 4 8 C2.68 7.67 1.36 7.34 0 7 C0 4.69 0 2.38 0 0 Z " fill="#A894CB" transform="translate(164,38)"/>
<path d="M0 0 C0.66 0.33 1.32 0.66 2 1 C1.67 2.65 1.34 4.3 1 6 C-0.32 4.68 -1.64 3.36 -3 2 C-2.01 1.34 -1.02 0.68 0 0 Z " fill="#8963D3" transform="translate(116,38)"/>
<path d="M0 0 C4.875 2.625 4.875 2.625 6 6 C5.01 6 4.02 6 3 6 C2.67 5.01 2.34 4.02 2 3 C1.34 3 0.68 3 0 3 C0 2.01 0 1.02 0 0 Z " fill="#7F64BB" transform="translate(136,25)"/>
<path d="M0 0 C1.0625 1.875 1.0625 1.875 2 4 C1.67 4.66 1.34 5.32 1 6 C-0.32 6 -1.64 6 -3 6 C-1.125 1.125 -1.125 1.125 0 0 Z " fill="#B8A1DF" transform="translate(46,21)"/>
<path d="M0 0 C0.33 0 0.66 0 1 0 C1 2.31 1 4.62 1 7 C0.34 7 -0.32 7 -1 7 C-0.67 4.69 -0.34 2.38 0 0 Z " fill="#9E87C8" transform="translate(200,112)"/>
</svg>
